<?xml version="1.0" encoding="iso-8859-1"?>
<!-- Uploaded to: SVG Repo, www.svgrepo.com, Generator: SVG Repo Mixer Tools -->
<!DOCTYPE svg PUBLIC "-//W3C//DTD SVG 1.1//EN" "http://www.w3.org/Graphics/SVG/1.1/DTD/svg11.dtd">
<svg fill="#000000" height="800px" width="800px" version="1.1" id="Capa_1" xmlns="http://www.w3.org/2000/svg" xmlns:xlink="http://www.w3.org/1999/xlink" 
	 viewBox="0 0 476.801 476.801" xml:space="preserve">
<path d="M468.801,115.2H8c-4.418,0-8,3.582-8,8v230.4c0,4.418,3.582,8,8,8h460.801c4.418,0,8-3.582,8-8V123.2
	C476.801,118.782,473.219,115.2,468.801,115.2z M460.801,345.601h-176v-16.616c0-4.418-3.582-8-8-8s-8,3.582-8,8v16.616H16V131.2
	h252.801v145.599c0,4.418,3.582,8,8,8s8-3.582,8-8V131.2h176V345.601z M238.4,237.798L238.4,237.798
	c0.001,11.888-12.362,21.525-27.613,21.525l-41.421-2.691l-20.301,67.417h-21.12v-70.108l-41.686-2.708l-10.726,27.257
	l-16.389,3.927v-32.945l-0.281-0.019c-7.777-0.505-13.759-5.573-13.759-11.656h-0.001c0-6.083,5.982-11.151,13.759-11.656
	l0.281-0.019v-32.132l16.389,3.926l10.414,26.465l42.408-2.755v-69.627h20.301l20.973,66.946l41.159-2.674
	C226.037,216.273,238.4,225.91,238.4,237.798z M448,223.625c0,4.418-3.582,8-8,8H324.801c-4.418,0-8-3.582-8-8s3.582-8,8-8H440
	C444.418,215.625,448,219.207,448,223.625z M448,310.4c0,4.418-3.582,8-8,8H324.801c-4.418,0-8-3.582-8-8s3.582-8,8-8H440
	C444.418,302.4,448,305.982,448,310.4z M448,281.601c0,4.418-3.582,8-8,8H334.775c-4.418,0-8-3.582-8-8s3.582-8,8-8H440
	C444.418,273.601,448,277.183,448,281.601z M448,252.425c0,4.418-3.582,8-8,8h-86.399c-4.418,0-8-3.582-8-8s3.582-8,8-8H440
	C444.418,244.425,448,248.007,448,252.425z M310.4,203.2H440c4.418,0,8-3.582,8-8V152c0-4.418-3.582-8-8-8H310.4
	c-4.418,0-8,3.582-8,8v43.2C302.4,199.618,305.982,203.2,310.4,203.2z M318.4,160H432v27.2H318.4V160z"/>
</svg>