<?xml version="1.0" encoding="iso-8859-1"?>
<!-- Uploaded to: SVG Repo, www.svgrepo.com, Generator: SVG Repo Mixer Tools -->
<svg fill="#000000" height="800px" width="800px" version="1.1" id="Capa_1" xmlns="http://www.w3.org/2000/svg" xmlns:xlink="http://www.w3.org/1999/xlink" 
	 viewBox="0 0 403.75 403.75" xml:space="preserve">
<path id="XMLID_508_" d="M300.499,93.75C297.886,41.613,254.649,0,201.875,0s-96.011,41.613-98.624,93.75H46.875v94.375h18.75
	V403.75h85V320h102.5v83.75h85V188.125h18.75V93.75H300.499z M152.867,100.878l53.27-53.27c5.884,5.884,15.424,5.884,21.308,0
	l23.439,23.439c-5.884,5.884-5.884,15.424,0,21.308l-53.27,53.27c-5.884-5.884-15.424-5.884-21.308,0l-23.439-23.439
	C158.751,116.302,158.751,106.762,152.867,100.878z M253.125,290h-102.5v-45.625h102.5V290z"/>
</svg>